<mxfile host="app.diagrams.net" modified="2023-11-23T02:42:50.379Z" agent="Mozilla/5.0 (Macintosh; Intel Mac OS X 10_15_7) AppleWebKit/537.36 (KHTML, like Gecko) Chrome/119.0.0.0 Safari/537.36" etag="iVl5f_Vq1hKIbqJHcDjh" version="22.1.3" type="github">
  <diagram name="第 1 页" id="fj8Mo3o1L-Kos6y8MDqK">
    <mxGraphModel dx="1103" dy="1459" grid="1" gridSize="10" guides="1" tooltips="1" connect="1" arrows="1" fold="1" page="1" pageScale="1" pageWidth="1169" pageHeight="827" math="0" shadow="0">
      <root>
        <mxCell id="0" />
        <mxCell id="1" parent="0" />
        <mxCell id="VaB4zucoBdWu-VrWu2H7-19" value="" style="ellipse;whiteSpace=wrap;html=1;fillColor=#f5f5f5;fontColor=#333333;strokeColor=none;" vertex="1" parent="1">
          <mxGeometry x="40" y="480" width="160" height="120" as="geometry" />
        </mxCell>
        <mxCell id="VaB4zucoBdWu-VrWu2H7-1" value="" style="verticalLabelPosition=bottom;sketch=0;aspect=fixed;html=1;verticalAlign=top;strokeColor=none;align=center;outlineConnect=0;shape=mxgraph.citrix.chassis;" vertex="1" parent="1">
          <mxGeometry x="640" y="7" width="55" height="71" as="geometry" />
        </mxCell>
        <mxCell id="VaB4zucoBdWu-VrWu2H7-3" value="" style="image;html=1;image=img/lib/clip_art/computers/Virtual_Machine_128x128.png;aspect=fixed;" vertex="1" parent="1">
          <mxGeometry x="590" y="150" width="60" height="60" as="geometry" />
        </mxCell>
        <mxCell id="VaB4zucoBdWu-VrWu2H7-14" value="" style="verticalLabelPosition=bottom;sketch=0;aspect=fixed;html=1;verticalAlign=top;strokeColor=none;align=center;outlineConnect=0;shape=mxgraph.citrix.user_control;" vertex="1" parent="1">
          <mxGeometry x="760" y="-130" width="103" height="84" as="geometry" />
        </mxCell>
        <mxCell id="VaB4zucoBdWu-VrWu2H7-17" value="" style="verticalLabelPosition=bottom;sketch=0;aspect=fixed;html=1;verticalAlign=top;strokeColor=none;align=center;outlineConnect=0;shape=mxgraph.citrix.chassis;" vertex="1" parent="1">
          <mxGeometry x="940" y="7" width="55" height="71" as="geometry" />
        </mxCell>
        <mxCell id="VaB4zucoBdWu-VrWu2H7-18" value="" style="verticalLabelPosition=bottom;sketch=0;aspect=fixed;html=1;verticalAlign=top;strokeColor=none;align=center;outlineConnect=0;shape=mxgraph.citrix.chassis;" vertex="1" parent="1">
          <mxGeometry x="760" y="7" width="55" height="71" as="geometry" />
        </mxCell>
        <mxCell id="VaB4zucoBdWu-VrWu2H7-20" value="" style="image;html=1;image=img/lib/clip_art/computers/Virtual_Machine_128x128.png;aspect=fixed;opacity=50;" vertex="1" parent="1">
          <mxGeometry x="660" y="150" width="60" height="60" as="geometry" />
        </mxCell>
        <mxCell id="VaB4zucoBdWu-VrWu2H7-21" value="" style="ellipse;whiteSpace=wrap;html=1;fillColor=#f8cecc;strokeColor=none;aspect=fixed;" vertex="1" parent="1">
          <mxGeometry x="780" y="120" width="180" height="120" as="geometry" />
        </mxCell>
        <mxCell id="VaB4zucoBdWu-VrWu2H7-22" value="" style="image;html=1;image=img/lib/clip_art/computers/Virtual_Machine_128x128.png;aspect=fixed;" vertex="1" parent="1">
          <mxGeometry x="804.75" y="150" width="60" height="60" as="geometry" />
        </mxCell>
        <mxCell id="VaB4zucoBdWu-VrWu2H7-23" value="" style="image;html=1;image=img/lib/clip_art/computers/Virtual_Machine_128x128.png;aspect=fixed;imageBackground=#EA6B66;imageBorder=none;" vertex="1" parent="1">
          <mxGeometry x="874.75" y="150" width="60" height="60" as="geometry" />
        </mxCell>
        <mxCell id="VaB4zucoBdWu-VrWu2H7-24" value="" style="ellipse;whiteSpace=wrap;html=1;fillColor=#f5f5f5;fontColor=#333333;strokeColor=none;aspect=fixed;" vertex="1" parent="1">
          <mxGeometry x="989" y="120" width="180" height="120" as="geometry" />
        </mxCell>
        <mxCell id="VaB4zucoBdWu-VrWu2H7-25" value="" style="image;html=1;image=img/lib/clip_art/computers/Virtual_Machine_128x128.png;aspect=fixed;" vertex="1" parent="1">
          <mxGeometry x="1013.75" y="150" width="60" height="60" as="geometry" />
        </mxCell>
        <mxCell id="VaB4zucoBdWu-VrWu2H7-29" value="" style="shape=image;html=1;verticalAlign=top;verticalLabelPosition=bottom;labelBackgroundColor=#ffffff;imageAspect=0;aspect=fixed;image=https://cdn1.iconfinder.com/data/icons/user-pictures/101/malecostume-128.png" vertex="1" parent="1">
          <mxGeometry x="780" y="267" width="60" height="60" as="geometry" />
        </mxCell>
        <mxCell id="VaB4zucoBdWu-VrWu2H7-30" value="" style="shape=image;html=1;verticalAlign=top;verticalLabelPosition=bottom;labelBackgroundColor=#ffffff;imageAspect=0;aspect=fixed;image=https://cdn1.iconfinder.com/data/icons/user-pictures/100/male3-128.png" vertex="1" parent="1">
          <mxGeometry x="580" y="267" width="60" height="60" as="geometry" />
        </mxCell>
        <mxCell id="VaB4zucoBdWu-VrWu2H7-31" value="" style="shape=image;html=1;verticalAlign=top;verticalLabelPosition=bottom;labelBackgroundColor=#ffffff;imageAspect=0;aspect=fixed;image=https://cdn1.iconfinder.com/data/icons/user-pictures/100/female1-128.png" vertex="1" parent="1">
          <mxGeometry x="815" y="370" width="60" height="60" as="geometry" />
        </mxCell>
        <mxCell id="VaB4zucoBdWu-VrWu2H7-32" value="" style="shape=image;html=1;verticalAlign=top;verticalLabelPosition=bottom;labelBackgroundColor=#ffffff;imageAspect=0;aspect=fixed;image=https://cdn0.iconfinder.com/data/icons/kameleon-free-pack-rounded/110/Hacker-128.png" vertex="1" parent="1">
          <mxGeometry x="875" y="267" width="60" height="60" as="geometry" />
        </mxCell>
      </root>
    </mxGraphModel>
  </diagram>
</mxfile>
